<svg xmlns="http://www.w3.org/2000/svg" height="594pt" version="1.1" viewBox="0 0 594 594.338" width="594pt">
<defs>
<linearGradient gradientTransform="matrix(0.999433,0,0,0.999433,0.0550026,-477.728968)" gradientUnits="userSpaceOnUse" id="linear0" x1="204.9911" x2="384.7262" y1="1116.5623" y2="936.8267">
<stop offset="0" style="stop-color:rgb(100%,60%,70.980392%);stop-opacity:1;" />
<stop offset="1" style="stop-color:rgb(100%,86.27451%,40.784314%);stop-opacity:1;" />
</linearGradient>
</defs>
<g id="surface1">
<path d="M 434.722656 99.214844 C 407.652344 21.980469 323.089844 -18.691406 245.851562 8.382812 C 203.339844 23.28125 169.917969 56.707031 155.015625 99.214844 C 75.535156 93.695312 6.628906 153.648438 1.105469 233.128906 C 1.027344 234.292969 0.960938 235.457031 0.90625 236.621094 C -7.097656 316.203125 50.933594 387.210938 130.519531 395.210938 C 131.519531 395.3125 132.527344 395.402344 133.53125 395.484375 L 138.011719 395.730469 L 146.230469 569.246094 C 146.230469 582.917969 157.3125 594 170.984375 594 L 418.511719 594 C 432.183594 594 443.265625 582.917969 443.265625 569.246094 L 451.605469 395.753906 C 533.566406 392.332031 597.234375 323.109375 593.808594 241.148438 C 590.386719 159.1875 521.167969 95.519531 439.203125 98.945312 L 434.722656 99.191406 Z M 434.722656 99.214844 " style=" stroke:none;fill-rule:nonzero;fill:rgb(100%,94.901961%,77.647059%);fill-opacity:1;" />
<path d="M 208.113281 558.925781 C 194.441406 558.925781 183.359375 547.84375 183.359375 534.171875 L 175.066406 360.65625 L 170.585938 360.40625 C 90.855469 354.027344 31.390625 284.222656 37.769531 204.492188 C 37.847656 203.507812 37.9375 202.527344 38.035156 201.542969 C 39.96875 172.734375 50.019531 145.058594 67.019531 121.71875 C 28.191406 147.539062 3.71875 190.074219 0.90625 236.621094 C -7.097656 316.203125 50.933594 387.210938 130.519531 395.210938 C 131.519531 395.3125 132.527344 395.402344 133.53125 395.484375 L 138.011719 395.730469 L 146.230469 569.246094 C 146.230469 582.917969 157.3125 594 170.984375 594 L 418.511719 594 C 432.183594 594 443.265625 582.917969 443.265625 569.246094 L 443.757812 558.925781 Z M 208.113281 558.925781 " style=" stroke:none;fill-rule:nonzero;fill:rgb(100%,92.941176%,70.588235%);fill-opacity:1;" />
<path d="M 344.351562 445.484375 L 393.855469 445.484375 L 393.855469 519.742188 L 344.351562 519.742188 Z M 344.351562 445.484375 " style=" stroke:none;fill-rule:nonzero;fill:rgb(100%,89.803922%,55.686275%);fill-opacity:1;" />
<path d="M 195.832031 445.484375 L 245.339844 445.484375 L 245.339844 519.742188 L 195.832031 519.742188 Z M 195.832031 445.484375 " style=" stroke:none;fill-rule:nonzero;fill:rgb(100%,89.803922%,55.686275%);fill-opacity:1;" />
<path d="M 143.753906 519.742188 L 146.230469 569.246094 C 146.230469 582.917969 157.3125 594 170.984375 594 L 418.511719 594 C 432.179688 594 443.261719 582.917969 443.261719 569.246094 L 445.738281 519.742188 Z M 143.753906 519.742188 " style=" stroke:none;fill-rule:nonzero;fill:url(#linear0);" />
<path d="M 470.492188 346.472656 C 388.660156 346.664062 322.167969 280.480469 321.976562 198.644531 C 321.945312 184.777344 323.859375 170.96875 327.667969 157.632812 C 277.695312 222.675781 289.917969 315.914062 354.960938 365.886719 C 420.007812 415.855469 513.246094 403.636719 563.214844 338.589844 C 574.851562 323.441406 583.457031 306.191406 588.5625 287.78125 C 560.5625 324.75 516.867188 346.472656 470.492188 346.472656 Z M 470.492188 346.472656 " style=" stroke:none;fill-rule:nonzero;fill:rgb(100%,92.941176%,70.588235%);fill-opacity:1;" />
</g>
</svg>