<svg id="Layer_3" enable-background="new 0 0 64 64" height="512" viewBox="0 0 64 64" width="512" xmlns="http://www.w3.org/2000/svg"><g><path d="m13 36v20c0 3.314 2.686 6 6 6h26c3.314 0 6-2.686 6-6v-20" fill="#758190"/><path d="m13 36v20c0 3.314 2.686 6 6 6h5.857c9.695-5.119 16.665-14.693 18.194-26z" fill="#8892a0"/><path d="m40.283 6.994h5.414v6h-5.414z" fill="#a8b0bc" transform="matrix(.707 -.707 .707 .707 5.525 33.326)"/><path d="m42.093 12.925c1.132-1.499 2.041-3.171 2.683-4.974l-1.993-1.993-3.828 3.828z" fill="#c1c8d1"/><path d="m60 41v2c0 2.761-2.239 5-5 5h-4v-4h3c1.105 0 2-.895 2-2v-1z" fill="#e7e4dd"/><path d="m4 41v2c0 2.761 2.239 5 5 5h4v-4h-3c-1.105 0-2-.895-2-2v-1z" fill="#e7e4dd"/><path d="m51 36h-38c-1.657 0-3-1.343-3-3 0-1.657 1.343-3 3-3h38c1.657 0 3 1.343 3 3 0 1.657-1.343 3-3 3z" fill="#a8b0bc"/><path d="m47.025 10.201-4.243-4.243c-.781-.781-.781-2.047 0-2.828.781-.781 2.047-.781 2.828 0l4.243 4.243c.781.781.781 2.047 0 2.828-.78.781-2.047.781-2.828 0z" fill="#8892a0"/><path d="m60 41h-4c-1.105 0-2-.895-2-2 0-1.105.895-2 2-2h4c1.105 0 2 .895 2 2 0 1.105-.895 2-2 2z" fill="#a8b0bc"/><path d="m4 41h4c1.105 0 2-.895 2-2 0-1.105-.895-2-2-2h-4c-1.105 0-2 .895-2 2 0 1.105.895 2 2 2z" fill="#a8b0bc"/><path d="m49.854 30c3.124-3.124-.358-11.672-7.778-19.092s-15.968-10.902-19.092-7.778z" fill="#e7e4dd"/><g><path d="m45 59.998v-2c1.103 0 2-.896 2-2v-13.999h2v13.999c-.001 2.206-1.795 4-4 4z" fill="#cbc3b6"/></g><g><path d="m16.707 27.707-1.415-1.415 1.939-1.939c.488-.488.768-1.163.768-1.853 0-.701-.272-1.359-.768-1.854l-.878-.878c-.873-.873-1.353-2.034-1.353-3.268 0-1.235.48-2.396 1.353-3.269l1.939-1.939 1.415 1.415-1.939 1.939c-.488.488-.768 1.163-.768 1.854 0 .7.272 1.359.768 1.854l.878.878c.873.873 1.353 2.033 1.353 3.268s-.48 2.396-1.353 3.269z" fill="#e7e4dd"/></g><g><path d="m25.707 27.707-1.415-1.415 1.939-1.939c.488-.488.768-1.163.768-1.853 0-.701-.272-1.359-.768-1.854l-.878-.878c-.873-.873-1.353-2.034-1.353-3.268 0-1.235.48-2.396 1.353-3.269l1.939-1.939 1.415 1.415-1.939 1.939c-.488.488-.768 1.163-.768 1.854 0 .7.272 1.359.768 1.854l.878.878c.873.873 1.353 2.033 1.353 3.268s-.48 2.396-1.353 3.269z" fill="#e7e4dd"/></g><path d="m45.611 3.13c-.781-.781-2.047-.781-2.828 0s-.781 2.047 0 2.828l1.993 1.993c.525-1.472.877-3.024 1.017-4.64z" fill="#a8b0bc"/><path d="m10 33c0 1.657 1.343 3 3 3h30.051c.207-1.534.324-3.097.324-4.688 0-.44-.017-.876-.033-1.312h-30.342c-1.657 0-3 1.343-3 3z" fill="#c1c8d1"/></g></svg>